<?xml version="1.0" standalone="no"?>
<!DOCTYPE svg PUBLIC "-//W3C//DTD SVG 20010904//EN"
 "http://www.w3.org/TR/2001/REC-SVG-20010904/DTD/svg10.dtd">
<svg version="1.0" xmlns="http://www.w3.org/2000/svg"
 width="128.000000pt" height="128.000000pt" viewBox="0 0 128.000000 128.000000"
 preserveAspectRatio="xMidYMid meet">
<metadata>
Created by potrace 1.11, written by Peter Selinger 2001-2013
</metadata>
<g transform="translate(0.000000,128.000000) scale(0.100000,-0.100000)"
fill="#000000" stroke="none">
<path d="M320 958 c177 -178 326 -322 330 -321 7 2 152 9 395 19 88 3 176 7
195 8 l35 1 3 63 c2 34 1 62 -2 62 -7 0 -419 -96 -503 -118 -40 -10 -73 -17
-73 -15 0 2 21 13 48 24 26 11 56 25 67 30 11 5 119 52 240 103 l220 95 3 65
3 65 -295 -183 c-162 -101 -298 -181 -301 -177 -4 3 -13 -3 -21 -13 -7 -11
-16 -17 -19 -14 -4 3 -8 57 -10 119 -4 115 -15 339 -20 394 -2 17 -3 49 -4 73
l-1 42 -60 0 c-47 0 -60 -3 -60 -15 0 -9 27 -125 60 -258 85 -343 80 -315 63
-313 -12 2 -170 190 -418 499 l-70 87 -64 0 -64 0 323 -322z"/>
<path d="M273 1228 c18 -29 100 -160 182 -292 82 -131 151 -234 152 -229 4 10
-20 68 -132 323 -42 96 -83 192 -92 213 l-15 37 -64 0 -65 0 34 -52z"/>
<path d="M981 985 c-162 -163 -292 -297 -290 -300 4 -3 303 233 389 308 14 12
64 53 113 91 l87 69 0 64 c0 34 -1 63 -2 63 -2 0 -135 -133 -297 -295z"/>
<path d="M619 623 c-1 -5 -1 -11 0 -15 0 -5 -4 -7 -10 -5 -6 1 -14 -4 -17 -12
-3 -9 0 -11 7 -7 6 4 3 -7 -8 -26 -89 -154 -273 -472 -295 -511 l-28 -47 69 0
70 0 109 294 c60 162 111 293 113 291 2 -2 -2 -32 -8 -67 -7 -35 -14 -76 -16
-93 -2 -16 -8 -53 -14 -81 -5 -28 -12 -71 -15 -95 -3 -24 -12 -82 -21 -129
-22 -128 -26 -120 51 -120 l66 0 -7 178 c-4 97 -8 193 -10 212 -2 19 -4 73 -6
120 -1 49 -6 88 -13 92 -8 5 -7 8 2 8 7 0 10 5 7 10 -7 12 -24 13 -26 3z"/>
<path d="M288 290 l-287 -290 69 0 69 0 74 92 c118 149 362 462 371 476 25 41
-40 -20 -296 -278z"/>
</g>
</svg>
