<svg xmlns="http://www.w3.org/2000/svg" viewBox="0 0 560.52 102.56"><defs><style>.cls-1{fill:#d8d8d8;}</style></defs><title>logo_1</title><g id="Layer_2" data-name="Layer 2"><g id="Layer_1-2" data-name="Layer 1"><path class="cls-1" d="M147.26,9.06V46.85h-10.2V9.06H124.38V0H160V9.06Z"/><path class="cls-1" d="M195,27.65H177.12v19.2H166.93V0h10.19V18.59H195V0h10.19V46.85H195Z"/><path class="cls-1" d="M225.71,46.85h-10.2V0h22.22a15.38,15.38,0,0,1,5.84,1.07A12.63,12.63,0,0,1,248,4.13a14.14,14.14,0,0,1,2.85,4.73,17.72,17.72,0,0,1,1,6.11,16,16,0,0,1-2.11,8.32,12.16,12.16,0,0,1-6.41,5.17l9.19,18.39H241.22L233,29.66h-7.31V46.85Zm10.74-25.78A5.19,5.19,0,0,0,240,19.9a4.4,4.4,0,0,0,1.31-3.45V13.5A4.43,4.43,0,0,0,240,10a5.19,5.19,0,0,0-3.59-1.17H225.71V21.08h10.74Z"/><path class="cls-1" d="M260.75,46.85V0h31.88V9.06H270.94v9.53h18.59v9.06H270.94V37.78h21.69v9.07Z"/><path class="cls-1" d="M330.34,46.85,327,35.71H311.34L308,46.85H297.65L313.09,0h12.62l15.23,46.85ZM319.26,9.26h-.33L313.76,27H324.5Z"/><path class="cls-1" d="M362.62,9.06V46.85h-10.2V9.06H339.73V0h35.58V9.06Z"/><path class="cls-1" d="M131.28,101.76V93.64h6V63h-6V54.92h22.28V63h-6v30.6h6v8.12Z"/><path class="cls-1" d="M176.38,79.61l-4.5-9.4h-.2v31.55h-9.6V54.92h11.14L186,77.06l4.5,9.4h.2V54.92h9.59v46.84H189.19Z"/><path class="cls-1" d="M230.2,64v37.78H220V64H207.31V54.92h35.57V64Z"/><path class="cls-1" d="M249.86,101.76V54.92h31.89V64H260.06V73.5h18.59v9.07H260.06V92.7h21.69v9.06Z"/><path class="cls-1" d="M290.6,101.76V54.92h10.2V92.7h17.85v9.06Z"/><path class="cls-1" d="M326.17,101.76V54.92h10.2V92.7h17.85v9.06Z"/><path class="cls-1" d="M359.92,101.76V93.64H366V63h-6.05V54.92h22.29V63h-6v30.6h6v8.12Z"/><path class="cls-1" d="M420.46,94.31h-.33a8.91,8.91,0,0,1-3.62,5.9q-3.09,2.36-8.4,2.35A18.32,18.32,0,0,1,400.6,101a17.23,17.23,0,0,1-6.11-4.56,21.68,21.68,0,0,1-4.09-7.52,33.23,33.23,0,0,1-1.48-10.41,32.68,32.68,0,0,1,1.54-10.47,21.57,21.57,0,0,1,4.33-7.65,18.32,18.32,0,0,1,6.68-4.69,22.26,22.26,0,0,1,8.65-1.62A20.86,20.86,0,0,1,421,56.82,18.58,18.58,0,0,1,428.17,65l-8.31,4.76a11.45,11.45,0,0,0-3.36-4.66,9.62,9.62,0,0,0-6.38-1.92,10.39,10.39,0,0,0-7.58,2.75c-1.88,1.84-2.82,4.72-2.82,8.66v7.52q0,5.84,2.82,8.63a10.33,10.33,0,0,0,7.58,2.78,13.73,13.73,0,0,0,3.56-.44,8.84,8.84,0,0,0,2.95-1.34,6.48,6.48,0,0,0,2-2.18,6,6,0,0,0,.71-3V84.17h-8.73V75.65H429v26.11h-8.59V94.31Z"/><path class="cls-1" d="M439,101.76V54.92h31.88V64H449.18V73.5h18.59v9.07H449.18V92.7h21.68v9.06Z"/><path class="cls-1" d="M494,79.61l-4.49-9.4h-.2v31.55h-9.6V54.92h11.14l12.82,22.14,4.5,9.4h.2V54.92H518v46.84H506.83Z"/><path class="cls-1" d="M547.84,64v37.78h-10.2V64H525V54.92h35.57V64Z"/><path class="cls-1" d="M0,101.69H21.29L101.69,0Z"/><path class="cls-1" d="M42.57,101.69H63.86L101.69,0Z"/><path class="cls-1" d="M85.14,101.69h21.29L101.69,0Z"/><path class="cls-1" d="M147.26,9.06V46.85h-10.2V9.06H124.38V0H160V9.06Z"/><path class="cls-1" d="M195,27.65H177.12v19.2H166.93V0h10.19V18.59H195V0h10.19V46.85H195Z"/><path class="cls-1" d="M225.71,46.85h-10.2V0h22.22a15.38,15.38,0,0,1,5.84,1.07A12.63,12.63,0,0,1,248,4.13a14.14,14.14,0,0,1,2.85,4.73,17.72,17.72,0,0,1,1,6.11,16,16,0,0,1-2.11,8.32,12.16,12.16,0,0,1-6.41,5.17l9.19,18.39H241.22L233,29.66h-7.31V46.85Zm10.74-25.78A5.19,5.19,0,0,0,240,19.9a4.4,4.4,0,0,0,1.31-3.45V13.5A4.43,4.43,0,0,0,240,10a5.19,5.19,0,0,0-3.59-1.17H225.71V21.08h10.74Z"/><path class="cls-1" d="M260.75,46.85V0h31.88V9.06H270.94v9.53h18.59v9.06H270.94V37.78h21.69v9.07Z"/><path class="cls-1" d="M330.34,46.85,327,35.71H311.34L308,46.85H297.65L313.09,0h12.62l15.23,46.85ZM319.26,9.26h-.33L313.76,27H324.5Z"/><path class="cls-1" d="M362.62,9.06V46.85h-10.2V9.06H339.73V0h35.58V9.06Z"/><path class="cls-1" d="M131.28,101.76V93.64h6V63h-6V54.92h22.28V63h-6v30.6h6v8.12Z"/><path class="cls-1" d="M176.38,79.61l-4.5-9.4h-.2v31.55h-9.6V54.92h11.14L186,77.06l4.5,9.4h.2V54.92h9.59v46.84H189.19Z"/><path class="cls-1" d="M230.2,64v37.78H220V64H207.31V54.92h35.57V64Z"/><path class="cls-1" d="M249.86,101.76V54.92h31.89V64H260.06V73.5h18.59v9.07H260.06V92.7h21.69v9.06Z"/><path class="cls-1" d="M290.6,101.76V54.92h10.2V92.7h17.85v9.06Z"/><path class="cls-1" d="M326.17,101.76V54.92h10.2V92.7h17.85v9.06Z"/><path class="cls-1" d="M359.92,101.76V93.64H366V63h-6.05V54.92h22.29V63h-6v30.6h6v8.12Z"/><path class="cls-1" d="M420.46,94.31h-.33a8.91,8.91,0,0,1-3.62,5.9q-3.09,2.36-8.4,2.35A18.32,18.32,0,0,1,400.6,101a17.23,17.23,0,0,1-6.11-4.56,21.68,21.68,0,0,1-4.09-7.52,33.23,33.23,0,0,1-1.48-10.41,32.68,32.68,0,0,1,1.54-10.47,21.57,21.57,0,0,1,4.33-7.65,18.32,18.32,0,0,1,6.68-4.69,22.26,22.26,0,0,1,8.65-1.62A20.86,20.86,0,0,1,421,56.82,18.58,18.58,0,0,1,428.17,65l-8.31,4.76a11.45,11.45,0,0,0-3.36-4.66,9.62,9.62,0,0,0-6.38-1.92,10.39,10.39,0,0,0-7.58,2.75c-1.88,1.84-2.82,4.72-2.82,8.66v7.52q0,5.84,2.82,8.63a10.33,10.33,0,0,0,7.58,2.78,13.73,13.73,0,0,0,3.56-.44,8.84,8.84,0,0,0,2.95-1.34,6.48,6.48,0,0,0,2-2.18,6,6,0,0,0,.71-3V84.17h-8.73V75.65H429v26.11h-8.59V94.31Z"/><path class="cls-1" d="M439,101.76V54.92h31.88V64H449.18V73.5h18.59v9.07H449.18V92.7h21.68v9.06Z"/><path class="cls-1" d="M494,79.61l-4.49-9.4h-.2v31.55h-9.6V54.92h11.14l12.82,22.14,4.5,9.4h.2V54.92H518v46.84H506.83Z"/><path class="cls-1" d="M547.84,64v37.78h-10.2V64H525V54.92h35.57V64Z"/><path class="cls-1" d="M0,101.69H21.29L101.69,0Z"/><path class="cls-1" d="M42.57,101.69H63.86L101.69,0Z"/><path class="cls-1" d="M85.14,101.69h21.29L101.69,0Z"/><path class="cls-1" d="M147.26,9.06V46.85h-10.2V9.06H124.38V0H160V9.06Z"/><path class="cls-1" d="M195,27.65H177.12v19.2H166.93V0h10.19V18.59H195V0h10.19V46.85H195Z"/><path class="cls-1" d="M225.71,46.85h-10.2V0h22.22a15.38,15.38,0,0,1,5.84,1.07A12.63,12.63,0,0,1,248,4.13a14.14,14.14,0,0,1,2.85,4.73,17.72,17.72,0,0,1,1,6.11,16,16,0,0,1-2.11,8.32,12.16,12.16,0,0,1-6.41,5.17l9.19,18.39H241.22L233,29.66h-7.31V46.85Zm10.74-25.78A5.19,5.19,0,0,0,240,19.9a4.4,4.4,0,0,0,1.31-3.45V13.5A4.43,4.43,0,0,0,240,10a5.19,5.19,0,0,0-3.59-1.17H225.71V21.08h10.74Z"/><path class="cls-1" d="M260.75,46.85V0h31.88V9.06H270.94v9.53h18.59v9.06H270.94V37.78h21.69v9.07Z"/><path class="cls-1" d="M330.34,46.85,327,35.71H311.34L308,46.85H297.65L313.09,0h12.62l15.23,46.85ZM319.26,9.26h-.33L313.76,27H324.5Z"/><path class="cls-1" d="M362.62,9.06V46.85h-10.2V9.06H339.73V0h35.58V9.06Z"/><path class="cls-1" d="M131.28,101.76V93.64h6V63h-6V54.92h22.28V63h-6v30.6h6v8.12Z"/><path class="cls-1" d="M176.38,79.61l-4.5-9.4h-.2v31.55h-9.6V54.92h11.14L186,77.06l4.5,9.4h.2V54.92h9.59v46.84H189.19Z"/><path class="cls-1" d="M230.2,64v37.78H220V64H207.31V54.92h35.57V64Z"/><path class="cls-1" d="M249.86,101.76V54.92h31.89V64H260.06V73.5h18.59v9.07H260.06V92.7h21.69v9.06Z"/><path class="cls-1" d="M290.6,101.76V54.92h10.2V92.7h17.85v9.06Z"/><path class="cls-1" d="M326.17,101.76V54.92h10.2V92.7h17.85v9.06Z"/><path class="cls-1" d="M359.92,101.76V93.64H366V63h-6.05V54.92h22.29V63h-6v30.6h6v8.12Z"/><path class="cls-1" d="M420.46,94.31h-.33a8.91,8.91,0,0,1-3.62,5.9q-3.09,2.36-8.4,2.35A18.32,18.32,0,0,1,400.6,101a17.23,17.23,0,0,1-6.11-4.56,21.68,21.68,0,0,1-4.09-7.52,33.23,33.23,0,0,1-1.48-10.41,32.68,32.68,0,0,1,1.54-10.47,21.57,21.57,0,0,1,4.33-7.65,18.32,18.32,0,0,1,6.68-4.69,22.26,22.26,0,0,1,8.65-1.62A20.86,20.86,0,0,1,421,56.82,18.58,18.58,0,0,1,428.17,65l-8.31,4.76a11.45,11.45,0,0,0-3.36-4.66,9.62,9.62,0,0,0-6.38-1.92,10.39,10.39,0,0,0-7.58,2.75c-1.88,1.84-2.82,4.72-2.82,8.66v7.52q0,5.84,2.82,8.63a10.33,10.33,0,0,0,7.58,2.78,13.73,13.73,0,0,0,3.56-.44,8.84,8.84,0,0,0,2.95-1.34,6.48,6.48,0,0,0,2-2.18,6,6,0,0,0,.71-3V84.17h-8.73V75.65H429v26.11h-8.59V94.31Z"/><path class="cls-1" d="M439,101.76V54.92h31.88V64H449.18V73.5h18.59v9.07H449.18V92.7h21.68v9.06Z"/><path class="cls-1" d="M494,79.61l-4.49-9.4h-.2v31.55h-9.6V54.92h11.14l12.82,22.14,4.5,9.4h.2V54.92H518v46.84H506.83Z"/><path class="cls-1" d="M547.84,64v37.78h-10.2V64H525V54.92h35.57V64Z"/><path class="cls-1" d="M0,101.69H21.29L101.69,0Z"/><path class="cls-1" d="M42.57,101.69H63.86L101.69,0Z"/><path class="cls-1" d="M85.14,101.69h21.29L101.69,0Z"/></g></g></svg>